# File created by Blade
# Date/Time:  Tue Apr 07 20:57:09 2015
# Frame Rate: 120.000 fps
#------------------------------------------------------
:FULLY-SPECIFIED
:DEGREES
1106
root -2.010726 33.528242 6.154464 374.079039 6.476877 -719.601507
Spine -15.083936 -7.740741 0.074184
Head 8.812023 -1.733473 -1.350183
LeftShoulder -19.671709 38.908455 21.691084
LeftArm 58.951633 -55.663368 -57.512148
LeftForeArm 11.336996 -0.000000 -2.558461
LeftHand 5.018298 -0.000000 8.671830
LeftHandThumb1 -26.253704 0.000000 33.147579
RightShoulder -8.708563 3.980417 -31.356891
RightArm 11.752532 14.781935 41.336703
RightForeArm -16.779353 -0.000000 -0.236743
RightHand 3.663480 -0.000000 0.533162
RightHandThumb1 -24.326973 -0.000000 -32.862282
LeftUpLeg -5.783466 -7.517901 1.599198
LeftLeg -3.064004 -0.000000 0.000000
LeftFoot 2.581315 7.022844 -15.530070
LeftToeBase -14.616510 -0.000000 0.000000
RightUpLeg -6.288056 -4.874485 1.850227
RightLeg -2.869414 -0.000000 0.000000
RightFoot -1.609957 -8.215924 7.991378
RightToeBase -5.402538 -0.000000 0.000000
1107
root -2.032511 33.488545 6.154268 374.127831 6.372722 -719.605127
Spine -15.199552 -7.765132 0.106833
Head 8.691062 -1.578391 -1.321645
LeftShoulder -19.920265 38.975992 21.601493
LeftArm 58.888872 -56.217714 -57.303763
LeftForeArm 11.362571 -0.000000 -2.616117
LeftHand 4.593020 -0.000000 8.927948
LeftHandThumb1 -26.253704 0.000000 33.147579
RightShoulder -8.765772 4.082009 -31.523563
RightArm 11.782966 14.772928 40.869020
RightForeArm -16.802396 -0.000000 -0.254531
RightHand 3.318224 -0.000000 0.885364
RightHandThumb1 -24.326973 -0.000000 -32.862282
LeftUpLeg -5.696727 -7.674034 1.631280
LeftLeg -3.287162 -0.000000 0.000000
LeftFoot 2.154438 7.280484 -15.534872
LeftToeBase -14.254569 -0.000000 0.000000
RightUpLeg -6.262618 -4.818315 1.881932
RightLeg -2.992406 -0.000000 0.000000
RightFoot -1.884621 -8.160767 7.952825
RightToeBase -5.199800 -0.000000 0.000000
1108
root -2.052724 33.445403 6.148260 374.192242 6.282307 -719.618515
Spine -15.312733 -7.795418 0.173475
Head 8.510489 -1.434263 -1.336956
LeftShoulder -20.126888 38.921622 21.494505
LeftArm 58.812036 -56.894029 -57.132760
LeftForeArm 11.613004 -0.000000 -2.667796
LeftHand 4.442286 -0.000000 9.014703
LeftHandThumb1 -26.253704 0.000000 33.147579
RightShoulder -8.820314 4.280168 -31.719759
RightArm 11.743070 14.747246 40.384818
RightForeArm -16.901322 -0.000000 -0.232830
RightHand 2.867934 -0.000000 0.986358
RightHandThumb1 -24.326973 -0.000000 -32.862282
LeftUpLeg -5.690075 -7.825939 1.682739
LeftLeg -3.401364 -0.000000 0.000000
LeftFoot 1.632604 7.472584 -15.538973
LeftToeBase -13.944574 -0.000000 0.000000
RightUpLeg -6.235390 -4.697578 1.912367
RightLeg -3.156529 -0.000000 0.000000
RightFoot -2.167184 -8.160429 7.867199
RightToeBase -5.010763 -0.000000 0.000000
1109
root -2.073829 33.400739 6.138880 374.269101 6.202561 -719.640707
Spine -15.421646 -7.853028 0.253544
Head 8.328199 -1.237919 -1.330284
LeftShoulder -20.354192 38.847852 21.411017
LeftArm 58.531558 -57.457958 -56.781245
LeftForeArm 11.627026 -0.000000 -2.684992
LeftHand 4.242307 -0.000000 9.260903
LeftHandThumb1 -26.253704 0.000000 33.147579
RightShoulder -8.882031 4.415448 -31.902533
RightArm 11.772111 14.843784 39.940314
RightForeArm -17.210512 -0.000000 -0.205531
RightHand 2.407165 -0.000000 1.384344
RightHandThumb1 -24.326973 -0.000000 -32.862282
LeftUpLeg -5.728646 -8.012592 1.762480
LeftLeg -3.458528 -0.000000 0.000000
LeftFoot 1.069146 7.627382 -15.591028
LeftToeBase -13.673965 -0.000000 0.000000
RightUpLeg -6.239865 -4.627849 1.967016
RightLeg -3.281483 -0.000000 0.000000
RightFoot -2.524488 -8.134077 7.853317
RightToeBase -4.683256 -0.000000 0.000000
1110
root -2.096035 33.355208 6.124893 374.356665 6.110966 -719.656238
Spine -15.526307 -7.877000 0.307265
Head 8.128981 -1.101913 -1.301825
LeftShoulder -20.578677 38.785233 21.329999
LeftArm 58.301262 -57.988618 -56.458758
LeftForeArm 11.262309 -0.000000 -2.820859
LeftHand 4.730926 0.000000 9.949492
LeftHandThumb1 -26.253704 0.000000 33.147579
RightShoulder -8.940802 4.635844 -32.050047
RightArm 11.713463 14.858317 39.395805
RightForeArm -17.459816 -0.000000 -0.169291
RightHand 1.951113 -0.000000 1.664490
RightHandThumb1 -24.326973 -0.000000 -32.862282
LeftUpLeg -5.803294 -8.199541 1.847611
LeftLeg -3.472178 -0.000000 0.000000
LeftFoot 0.465404 7.728578 -15.604653
LeftToeBase -13.405228 -0.000000 0.000000
RightUpLeg -6.203317 -4.410726 1.984717
RightLeg -3.519088 -0.000000 0.000000
RightFoot -2.826985 -8.188074 7.868280
RightToeBase -4.394926 -0.000000 0.000000
1111
root -2.116638 33.309033 6.108365 374.436625 6.021614 -719.652900
Spine -15.603810 -7.924778 0.350007
Head 7.903035 -0.958248 -1.296865
LeftShoulder -20.845015 38.724602 21.196337
LeftArm 58.237083 -58.652169 -56.339603
LeftForeArm 11.373889 0.000000 -2.765736
LeftHand 4.671116 -0.000000 9.991881
LeftHandThumb1 -26.253704 0.000000 33.147579
RightShoulder -9.012407 4.899518 -32.208484
RightArm 11.659924 14.704747 38.846416
RightForeArm -17.653784 -0.000000 -0.126329
RightHand 1.443063 -0.000000 2.075386
RightHandThumb1 -24.326973 -0.000000 -32.862282
LeftUpLeg -5.871114 -8.466291 1.915816
LeftLeg -3.490995 -0.000000 0.000000
LeftFoot -0.156015 7.912742 -15.576281
LeftToeBase -13.149258 -0.000000 0.000000
RightUpLeg -6.190875 -4.202031 1.971348
RightLeg -3.686079 -0.000000 0.000000
RightFoot -3.193816 -8.206120 7.904655
RightToeBase -4.127065 -0.000000 0.000000
1112
root -2.139192 33.263773 6.092357 374.461148 5.953799 -719.678428
Spine -15.608478 -7.946954 0.394363
Head 7.668541 -0.823879 -1.227034
LeftShoulder -21.044645 38.621982 21.179938
LeftArm 58.100508 -59.202607 -56.264410
LeftForeArm 11.399206 0.000000 -2.602469
LeftHand 4.625627 -0.000000 10.350802
LeftHandThumb1 -26.253704 0.000000 33.147579
RightShoulder -9.074213 5.174380 -32.338353
RightArm 11.555550 14.631288 38.286033
RightForeArm -17.953105 -0.000000 -0.139937
RightHand 1.080717 -0.000000 2.577456
RightHandThumb1 -24.326973 -0.000000 -32.862282
LeftUpLeg -5.893156 -8.724951 2.014352
LeftLeg -3.492105 -0.000000 0.000000
LeftFoot -0.830100 8.051360 -15.586666
LeftToeBase -12.743563 -0.000000 0.000000
RightUpLeg -6.109117 -4.004789 1.996138
RightLeg -3.915785 -0.000000 0.000000
RightFoot -3.570541 -8.299190 8.127238
RightToeBase -3.643639 -0.000000 0.000000
1113
root -2.159834 33.219056 6.075428 374.473203 5.880781 -719.704598
Spine -15.593359 -7.935688 0.453945
Head 7.428372 -0.744825 -1.247922
LeftShoulder -21.248688 38.547962 21.092623
LeftArm 58.201243 -59.864851 -56.405368
LeftForeArm 11.588636 -0.000000 -2.439748
LeftHand 4.619453 -0.000000 10.152778
LeftHandThumb1 -26.253704 0.000000 33.147579
RightShoulder -9.139766 5.347218 -32.480389
RightArm 11.456169 14.605461 37.738211
RightForeArm -18.192597 -0.000000 -0.093906
RightHand 0.776671 -0.000000 3.226787
RightHandThumb1 -24.326973 -0.000000 -32.862282
LeftUpLeg -5.885348 -9.009361 2.109936
LeftLeg -3.527997 -0.000000 0.000000
LeftFoot -1.554535 8.215387 -15.805017
LeftToeBase -12.191358 -0.000000 0.000000
RightUpLeg -6.023602 -3.831067 2.007757
RightLeg -4.120282 -0.000000 0.000000
RightFoot -3.916539 -8.254821 8.236945
RightToeBase -3.302268 -0.000000 0.000000
1114
root -2.181218 33.176486 6.057113 374.444925 5.801958 -719.782662
Spine -15.521919 -7.895419 0.553670
Head 7.173150 -0.696540 -1.255700
LeftShoulder -21.472759 38.440647 21.066971
LeftArm 58.370096 -60.424435 -56.737599
LeftForeArm 11.607155 0.000000 -2.116083
LeftHand 4.557488 -0.000000 9.841091
LeftHandThumb1 -26.253704 0.000000 33.147579
RightShoulder -9.182745 5.532596 -32.587211
RightArm 11.371006 14.445732 37.146232
RightForeArm -18.175645 -0.000000 -0.170614
RightHand 0.364225 -0.000000 3.624184
RightHandThumb1 -24.326973 -0.000000 -32.862282
LeftUpLeg -5.842035 -9.249986 2.235000
LeftLeg -3.561659 -0.000000 0.000000
LeftFoot -2.262844 8.414519 -15.897993
LeftToeBase -11.646494 -0.000000 0.000000
RightUpLeg -5.911185 -3.620620 2.056098
RightLeg -4.306393 -0.000000 0.000000
RightFoot -4.201752 -8.194107 8.266045
RightToeBase -3.007563 -0.000000 0.000000
